<?xml version="1.0" standalone="no"?>
<!DOCTYPE svg PUBLIC "-//W3C//DTD SVG 20010904//EN"
 "http://www.w3.org/TR/2001/REC-SVG-20010904/DTD/svg10.dtd">
<svg version="1.0" xmlns="http://www.w3.org/2000/svg"
 width="1366.000000pt" height="768.000000pt" viewBox="0 0 1366.000000 768.000000"
 preserveAspectRatio="xMidYMid meet"
 >

<g transform="translate(0.000000,768.000000) scale(0.100000,-0.100000)"
fill="#3c7b97" stroke="none">
<path d="M4830 6667 l0 -1013 -57 -28 c-426 -209 -723 -712 -723 -1226 l0 -87
-132 -5 c-140 -6 -203 -21 -313 -76 -264 -132 -445 -458 -445 -802 0 -253 85
-459 259 -630 129 -127 291 -203 509 -241 107 -18 168 -19 958 -19 l844 0 0
290 0 290 -146 0 -145 0 284 562 c157 309 289 563 293 565 8 2 574 -1105 574
-1121 0 -3 -65 -6 -145 -6 l-145 0 0 -290 0 -290 265 0 265 0 0 -165 0 -165
-170 0 c-93 0 -170 -2 -170 -5 0 -3 88 -180 196 -393 408 -805 506 -997 509
-1000 1 -1 76 143 165 320 90 178 248 490 351 694 104 205 189 375 189 378 0
3 -76 6 -170 6 l-170 0 0 165 0 165 420 0 420 0 0 45 0 45 -460 0 -460 0 0
-250 0 -250 145 0 c80 0 145 -3 145 -7 0 -7 -165 -337 -445 -888 -67 -132
-126 -239 -131 -239 -8 2 -573 1111 -574 1127 0 4 65 7 145 7 l145 0 0 250 0
250 -265 0 -265 0 0 200 0 200 175 0 174 0 -133 263 c-73 144 -231 456 -351
692 -119 237 -220 433 -224 437 -4 4 -116 -209 -251 -475 -134 -265 -292 -578
-352 -695 -59 -117 -108 -215 -108 -217 0 -3 79 -5 175 -5 l175 0 0 -200 0
-200 -812 0 c-880 0 -925 2 -1077 54 -210 73 -365 205 -455 391 -61 124 -81
213 -81 355 0 129 19 230 65 339 95 232 266 384 495 441 75 19 106 22 190 17
55 -3 110 -9 122 -12 21 -7 21 -6 16 92 -7 129 18 329 58 464 106 358 337 640
643 785 l76 36 0 1044 0 1044 -35 0 -35 0 0 -1013z"/>
<path d="M6665 6293 c-184 -21 -361 -108 -489 -241 -101 -104 -175 -229 -225
-380 -17 -51 -31 -99 -31 -105 0 -7 -4 -18 -9 -25 -6 -11 -21 -5 -67 24 -91
58 -217 113 -317 139 l-92 23 -6 -26 c-14 -57 -12 -60 48 -72 143 -30 321
-119 444 -221 l46 -38 6 65 c21 224 164 495 327 620 60 46 168 103 242 128 69
23 210 30 303 16 352 -53 626 -360 676 -757 7 -54 13 -99 14 -100 1 -2 27 11
58 28 185 100 392 91 566 -25 194 -129 314 -385 297 -634 -6 -87 -5 -93 11
-88 66 20 215 36 337 36 200 0 328 -28 531 -115 75 -32 210 -130 290 -210 170
-170 280 -382 322 -620 23 -131 13 -331 -21 -445 -118 -389 -430 -614 -887
-638 l-134 -7 -3 -1312 -2 -1313 40 0 40 0 0 1270 0 1270 36 0 c62 0 245 30
319 51 280 83 483 249 600 493 56 117 83 215 96 347 20 215 -20 426 -121 634
-88 182 -197 317 -350 434 -142 109 -279 172 -474 217 -94 22 -136 26 -276 27
-91 0 -191 -3 -222 -7 l-58 -7 0 61 c0 196 -87 399 -234 546 -88 87 -152 128
-261 165 -102 35 -259 33 -364 -5 -41 -14 -75 -26 -76 -26 -1 0 -5 21 -9 46
-15 110 -93 303 -164 406 -112 163 -300 300 -467 342 -114 29 -210 39 -290 29z"/>
</g>
</svg>
