<?xml version="1.0" standalone="no"?>
<!DOCTYPE svg PUBLIC "-//W3C//DTD SVG 20010904//EN"
 "http://www.w3.org/TR/2001/REC-SVG-20010904/DTD/svg10.dtd">
<svg version="1.0" xmlns="http://www.w3.org/2000/svg"
 width="500.000000pt" height="500.000000pt" viewBox="0 0 500.000000 500.000000"
 preserveAspectRatio="xMidYMid meet">
<metadata>
Created by potrace 1.14, written by Peter Selinger 2001-2017
</metadata>
<g transform="translate(0.000000,500.000000) scale(0.100000,-0.100000)"
fill="#000000" stroke="none">
<path d="M2447 4622 c-64 -64 -117 -122 -117 -127 0 -6 33 -29 73 -52 197
-115 399 -282 515 -427 31 -39 59 -73 63 -76 16 -14 74 -109 104 -168 54 -111
68 -171 63 -286 -3 -90 -7 -110 -35 -167 -36 -72 -97 -139 -149 -163 -140 -65
-166 -70 -339 -70 -114 0 -181 6 -278 23 -173 32 -177 25 -39 -65 79 -52 272
-193 298 -219 6 -5 44 -39 84 -75 186 -165 407 -473 475 -660 44 -122 49 -155
49 -295 0 -137 0 -142 -34 -220 -66 -155 -127 -225 -280 -317 -181 -109 -541
-142 -888 -82 -127 22 -356 80 -490 125 -64 21 -121 39 -126 39 -6 0 232 -243
529 -540 297 -297 545 -540 551 -540 11 0 2294 2277 2294 2288 0 11 -2184
2192 -2195 2192 -6 0 -63 -53 -128 -118z"/>
<path d="M1716 3973 c-207 -207 -373 -380 -369 -384 15 -15 230 -97 318 -122
190 -55 359 -74 501 -57 163 20 247 62 323 162 129 173 75 390 -150 603 -95
88 -208 175 -230 175 -9 0 -185 -170 -393 -377z"/>
<path d="M710 2965 c-261 -261 -476 -478 -477 -482 -2 -5 162 -173 364 -375
l368 -367 125 -41 c265 -89 534 -140 730 -140 84 0 248 23 318 44 255 76 424
289 423 533 0 175 -65 324 -231 528 -80 98 -261 267 -364 340 -16 11 -40 29
-55 41 -43 34 -190 128 -281 179 -136 77 -418 215 -439 215 -4 0 -221 -214
-481 -475z"/>
</g>
</svg>
